<?xml version="1.0" standalone="no"?>
<!DOCTYPE svg PUBLIC "-//W3C//DTD SVG 20010904//EN"
 "http://www.w3.org/TR/2001/REC-SVG-20010904/DTD/svg10.dtd">
<svg version="1.0" xmlns="http://www.w3.org/2000/svg"
 width="350.000000pt" height="350.000000pt" viewBox="0 0 350.000000 350.000000"
 preserveAspectRatio="xMidYMid meet">
<metadata>
Created by potrace 1.16, written by Peter Selinger 2001-2019
</metadata>
<g transform="translate(0.000000,350.000000) scale(0.011667,-0.017500)"
fill="#000000" stroke="none">
<path d="M12752 16513 c-49 -87 -531 -945 -1072 -1907 -962 -1710 -983 -1750
-969 -1775 9 -14 492 -873 1074 -1909 582 -1035 1062 -1879 1066 -1875 4 4
487 862 1074 1906 l1067 1897 2144 0 c1179 0 2144 2 2144 5 0 2 -482 862
-1071 1910 l-1072 1905 -2148 0 -2148 0 -89 -157z"/>
<path d="M17138 10938 c-8 -13 -491 -870 -1073 -1905 l-1058 -1883 -2145 0
c-1711 0 -2143 -3 -2139 -12 2 -7 484 -866 1070 -1908 l1066 -1895 2149 -3
2150 -2 1066 1895 c587 1042 1069 1901 1072 1909 3 7 -477 870 -1066 1917
-590 1047 -1073 1905 -1075 1907 -1 1 -9 -8 -17 -20z"/>
</g>
</svg>
